<?xml version="1.0" encoding="UTF-8"?>
<!DOCTYPE svg PUBLIC "-//W3C//DTD SVG 1.1//EN" "http://www.w3.org/Graphics/SVG/1.1/DTD/svg11.dtd">
<!-- Creator: CorelDRAW -->
<?xml-stylesheet href="LOGO_YUSRAN.css" type="text/css"?>
<svg xmlns="http://www.w3.org/2000/svg" xml:space="preserve" width="67.8937mm" height="147.535mm" version="1.1" style="shape-rendering:geometricPrecision; text-rendering:geometricPrecision; image-rendering:optimizeQuality; fill-rule:evenodd; clip-rule:evenodd"
viewBox="0 0 6789.4 14753.53"
 xmlns:xlink="http://www.w3.org/1999/xlink"
 xmlns:xodm="http://www.corel.com/coreldraw/odm/2003">
 <g id="Layer_x0020_1">
  <metadata id="CorelCorpID_0Corel-Layer"/>
  <g id="_2535319460480">
   <path class="fil0" d="M59.27 10310.09c354.7,-2058.26 1088.45,-3437.77 2297.11,-3966.92l218 -25.45 235.8 39.5 259.35 -271.5 286.35 -603.65 -512.5 -588.9 -229.25 -481.75 -306.5 45.45 -349.2 -322.7 672.1 -2724.91 3258.81 158.35 269 352.05 -124.3 37.05 32.2 653.45 197.3 2100.81 -847.1 1170.51 -908.2 246.8 332.2 439.95 137.95 -111.55 506.3 482.7 535.9 884.9 287.25 989.8 266.45 1640.51 -204.3 187.7 106 1223.46 267.15 2007.76c265.85,1277.36 -6759.18,1072.95 -6616.08,-27.7l315.25 -3261.06 -383.05 -274.65z"/>
   <g>
    <path class="fil1" d="M2718.37 2611.86c188.53,-111.88 473.22,-85.64 434.54,-390.82 -13.72,-108.38 -115.86,-180.04 -144.47,-278.28 -39.23,-134.8 41.55,-234.06 84.88,-321.9 222.22,37.01 444.39,95.86 682.3,131.98 504.32,76.55 975.5,112.8 1484.27,39.91 241.8,-34.63 450.25,-122.84 642.42,-153.52 100.44,102.08 50.23,33.9 84.36,156.13 28.46,101.98 30.32,52.61 126.89,118.34 -75.19,43.12 -85.28,5.69 -103.39,14.01 -36.64,456.12 23.6,1177.92 63.58,1641.05 93.85,1087.18 172.57,1074.32 -404.85,1799.41 -119.98,150.64 -357,388.05 -539.52,499.54 -290.7,177.56 -676.63,104.22 -919.08,-123.52 -262.6,-246.68 -400.28,70.52 -141.55,274.05 78.67,61.89 202.21,107.99 318.95,145.83 168,54.44 119.57,114 202.57,261.85 88.28,157.2 85.51,152.88 227.19,237.06 -22.29,204.22 -138.59,416.93 -248.02,570.13 -184.38,258.13 -530.66,454.67 -934,346.18 -488.72,-131.43 -864.95,-679.53 -1053.8,-1114.17 465.17,-1.93 740.19,-548.38 781.98,-904.78 122.49,-22.45 170.47,-35.44 169.06,-164.15 -72.1,-64.82 -208.45,-120.62 -289.02,-190.66 -142.17,-123.54 -417.53,-498.12 -533.18,-683.57 -64.34,-103.13 -19.13,-60.22 -45.5,-175.6 -178.05,-69.44 -229.9,40.77 -402.65,-39.15 -102.16,-47.28 -174.45,-133.84 -195.2,-276.66 -42.81,-294.67 140.86,-525.15 405.43,-552.44l117.31 103.65c9.02,2.09 138.02,-16.65 138.65,-16.59 -8.39,-35.31 -23.08,-876.56 -10.14,-953.29zm-21.25 -2033.84l90.35 -218.4c-172.31,56.24 -248.91,230.22 -273.61,458.35 -87.83,-50.37 -306.09,-210.41 -450.66,-107.26 149.88,108.17 186.63,47.59 335.54,214.28 -241.25,-30.45 -438.3,-6.88 -492.19,214.82 -41.4,170.35 55.25,182.24 0.44,286.94 -71.74,137.02 -36.85,183.38 26.66,283.4 -82.04,103.18 -184.41,230.9 -118,431.75l80.44 -78.02c-229.46,847.58 139.69,1383.71 57.63,1556.78 -253.43,534.29 64.47,1064.67 673.73,895.42 76.62,145.65 42.65,231.97 237.77,559.57 183.31,307.79 191.96,246.24 352.29,436.68 -91.42,210.83 -183.98,731.59 -624.2,913.49 -2.92,1.2 -9.56,3.03 -12.28,4.05l-37.14 11.81c181.09,834.53 967.17,1602.17 1716.38,1235.32 351.93,-172.33 576.11,-530.43 669.2,-903.76 12.03,-48.22 17.07,-77.31 24.65,-126.63 1.38,-8.96 11.94,-74.32 12.02,-74.61l37.06 -74.61c45.06,88.7 442.09,512.91 605.25,747.11 653.92,938.57 611.53,1576.5 770.09,2661.06 27.51,188.15 81.87,406.19 97.69,583.46 -197.82,71.97 -364.74,169.85 -568.82,246.94l-54.16 -1713.47c-2.58,50.05 -51.27,451.53 -55.69,562.36 -24.22,606.17 -2.19,1345.77 31.18,1945.4 40.46,727.3 108.51,1407.78 208.97,2124.52 16.21,115.78 18.72,194.47 125.45,194.42 72.89,-136.24 -21.35,-527.69 -43.46,-701.14 -62.99,-494.05 -226.98,-1838.01 -194.16,-2207.16 123.41,40.56 325.59,-98.06 433.58,-154.28 36.43,220.01 37.32,574.91 51.25,809.86 16.1,271.13 30.94,535.95 57.31,806.52l136.5 1167.55c19.45,146.64 -0.13,282.23 138.96,302.98 108.56,-130.88 -4.94,-579.93 -28.33,-764.13 -33.61,-264.61 -65.18,-523.53 -101.51,-783.54 -71.71,-513.34 -159.68,-1055.32 -206.83,-1572.35 390.9,-117.92 215.72,-233.04 133.73,-743.53 -102.97,-641.08 -128.58,-1293.07 -327.52,-1909.17 -164.64,-509.89 -500,-1035.64 -862.75,-1372.03 -75.77,-70.25 -313.3,-287.53 -443.35,-316.67l-66.49 64.39c-79,-70.59 -127.22,-106.26 -175.96,-230.92 396.02,37.66 545.01,-79.69 829.38,-322.71 40.9,-34.97 73.34,-52.35 111.75,-88.7 249.33,-235.92 625.2,-636.12 747.01,-1044.16 164.78,-551.94 -206.41,-2205.17 -304.16,-2821.85 323.71,-3.94 580.51,-226.32 363.64,-329.74 82.64,-77.25 62.18,-99.49 62.52,-241.95 0.31,-133.13 67.24,-128.27 -20.7,-263.57 -103.81,-159.76 -229.75,-216.61 -316.13,-347.62 -106.03,-160.86 6.77,-62.17 -172.2,-159.71 -147.97,-80.62 -95.44,-215.48 -588.81,-392.07 33.58,46.49 122.26,83.92 175.13,119.78 59.61,40.45 136.24,111.62 170.26,157.85 -351.09,-201.47 -815.82,-351.35 -1298.43,-408.9 73.49,-24.6 30.79,4.36 57.13,-50.16 -264.58,-109.29 -302.19,-11.49 -524.76,-18.08 -239.78,-7.11 -532.78,8.86 -735.01,141.41 -94,61.63 -77.07,87.24 -163.15,146.72l-360.48 255.91z"/>
    <path class="fil1" d="M298.63 10596.92c-154.27,1137.89 -227.32,1749.62 -253.38,2881.07 -3.66,159.45 -36.56,307.4 81.8,367.82 124.41,-54.33 97.8,-151.56 99.97,-300.76l45.79 -1279.35c17.61,-317.35 71.69,-1362.1 107.91,-1609.51 72.31,35.51 146.53,91.7 219.42,136 85.8,52.14 167.97,96.12 259.42,139.69 254.65,121.32 340.03,106.5 614.13,178.71 43.62,356.4 -238.89,2730.9 -115.46,2966.71l87 -7.45c92.52,-136.26 108.8,-1634.78 120.07,-1919.28 25.22,-636.54 83.65,-1353.06 34.78,-1983.71 -79.68,138.98 -86.92,567.48 -105.37,762.48 -398.22,-9.86 -771.86,-231.98 -1073.35,-444.69 -87.42,-61.67 -228.08,-146.98 -294.51,-214.93 -3.19,-302.66 211.27,-1000.93 301.09,-1291.9 157.12,-508.84 476.62,-1210.2 786.6,-1625.79 241.44,-323.65 449.02,-575.88 804.64,-788.25 175.41,-104.77 368.78,-153.2 555.2,-246.05 -503.8,-138.02 -1167.7,529.41 -1381.28,835.81 -59.45,85.28 -124.58,171.08 -180.95,261.84 -115.02,185.22 -220.71,366.04 -325.54,581.34 -204.34,419.72 -349.39,828.21 -488.95,1302.87 -70.64,240.34 -121.55,486.29 -169.38,735.69 -88.75,462.88 39.57,357.45 270.34,561.61z"/>
    <path class="fil1" d="M2207.98 3890.85c380.55,-21.96 403.31,170.6 510.28,181.92 71.38,7.53 122.6,-49.71 103.26,-123.04 -45,-170.56 -518.09,-266.58 -613.54,-58.88z"/>
   </g>
  </g>
 </g>
</svg>
